PathFileType	4	(X/Y/Z)	Kaydara																																																																																																																									
DataRate	CameraRate	NumFrames	NumMarkers	Units	OrigDataRate	OrigDataStartFrame	OrigNumFrames																																																																																																																					
30	30	7	41	mm	30	99	148																																																																																																																					
Frame#	Time	SALE_LFHD			SALE_RFHD			SALE_LBHD			SALE_RBHD			SALE_LFTShould			SALE_RFTShould			SALE_LRRShould			SALE_RRRShould			SALE_T10			SALE_STRN			SALE_TRUN			SALE_LSHO			SALE_LUPA			SALE_LELB			SALE_LFRM			SALE_LWRA			SALE_LWRB			SALE_LFIN			SALE_RSHO			SALE_RUPA			SALE_RELB			SALE_RFRM			SALE_RWRB			SALE_RFIN			SALE_LFWT			SALE_RFWT			SALE_LBWT			SALE_RBWT			SALE_LTHI			SALE_LKNE			SALE_RWRA			SALE_LSHN			SALE_LANK			SALE_LHEE			SALE_LTOE			SALE_RTHI			SALE_RKNE			SALE_RSHN			SALE_RANK			SALE_RHEE			SALE_RTOE		
		X1	Y1	Z1	X2	Y2	Z2	X3	Y3	Z3	X4	Y4	Z4	X5	Y5	Z5	X6	Y6	Z6	X7	Y7	Z7	X8	Y8	Z8	X9	Y9	Z9	X10	Y10	Z10	X11	Y11	Z11	X12	Y12	Z12	X13	Y13	Z13	X14	Y14	Z14	X15	Y15	Z15	X16	Y16	Z16	X17	Y17	Z17	X18	Y18	Z18	X19	Y19	Z19	X20	Y20	Z20	X21	Y21	Z21	X22	Y22	Z22	X23	Y23	Z23	X24	Y24	Z24	X25	Y25	Z25	X26	Y26	Z26	X27	Y27	Z27	X28	Y28	Z28	X29	Y29	Z29	X30	Y30	Z30	X31	Y31	Z31	X32	Y32	Z32	X33	Y33	Z33	X34	Y34	Z34	X35	Y35	Z35	X36	Y36	Z36	X37	Y37	Z37	X38	Y38	Z38	X39	Y39	Z39	X40	Y40	Z40	X41	Y41	Z41
																																																																																																																												
75	3.267	172.93003	1625.19913	-553.56068	39.52271	1623.09723	-552.97676	167.4032	1601.40457	-686.51566	39.84001	1598.53333	-679.39697	183.01115	1362.99805	-595.28969	44.23364	1358.0098	-587.04472	168.31533	1425.76523	-704.20647	20.54001	1426.01913	-688.97766	89.73001	1278.23578	-776.99989	113.42147	1285.15396	-549.10786	115.14761	1195.68611	-515.69	290.56789	1394.86862	-668.73138	332.46315	1182.19177	-701.07811	313.51538	1072.2979	-725.7386	347.27169	966.5078	-713.09273	295.25188	818.87589	-655.46555	356.20975	818.78128	-706.36253	355.97744	767.19017	-665.27237	-66.45383	1392.75406	-639.61597	-107.71696	1165.94887	-704.5369	-139.40969	1066.29265	-659.28749	-134.28929	950.50774	-661.9442	-158.51109	818.07899	-605.5793	-172.43437	785.85358	-547.94407	238.81701	949.56429	-612.69955	-36.62081	956.5831	-592.39738	175.75043	998.5202	-780.38292	-2.72962	1015.57411	-766.80298	222.09219	628.6972	-633.25905	215.99222	517.23858	-477.61959	-115.63325	833.53287	-546.77685	207.05053	342.01054	-596.87099	196.28162	236.24044	-756.94542	147.14881	234.30595	-834.88503	184.79666	116.35136	-684.13589	-53.12678	706.39023	-748.2283	-9.53439	545.86033	-653.94272	51.95944	354.55364	-687.7729	13.86114	107.23911	-764.21906	57.40859	53.56476	-842.48901	46.30092	63.98169	-649.5388
76	3.3	173.90541	1621.59576	-510.20615	40.62274	1619.54559	-510.22091	168.99368	1597.72491	-643.21983	41.30054	1595.00809	-636.68037	184.06155	1358.77838	-553.28785	45.10078	1355.06927	-543.60645	168.70068	1422.04697	-662.08809	21.1494	1423.44604	-645.42358	88.32609	1275.39856	-734.48044	113.97493	1281.48636	-506.74412	115.18461	1191.912	-473.63842	291.07723	1389.76517	-628.19984	330.70091	1178.53134	-669.60014	310.63053	1070.07126	-698.67897	344.71748	964.13315	-692.48672	295.05396	813.61717	-643.34076	353.81294	816.40167	-693.64143	354.78172	762.36313	-655.86533	-65.63873	1390.78522	-595.47527	-109.42983	1163.06198	-656.36276	-140.65367	1064.46457	-608.27148	-135.6424	948.32024	-606.68129	-159.23846	818.33633	-544.3922	-173.04951	788.73672	-485.33482	237.97728	948.34312	-569.7184	-37.95301	951.46873	-554.41906	177.3481	996.61537	-738.31276	-1.12631	1011.96846	-727.24777	227.41074	632.15778	-576.8932	216.40871	528.42052	-415.69427	-116.17143	836.50063	-486.47476	206.83674	331.69727	-502.35741	195.88964	197.88624	-640.25337	146.69922	180.02916	-717.40662	183.50767	98.77723	-544.42848	-49.90602	706.32133	-720.90103	-9.82289	542.18628	-633.33435	52.50465	352.14596	-675.37491	14.86418	108.18769	-762.29576	59.03445	55.80123	-841.66885	46.12966	63.63654	-649.20052
77	3.333	176.10657	1616.19583	-466.87817	42.64855	1614.66629	-467.23263	171.37426	1591.68671	-599.70779	43.73503	1589.55627	-593.56476	185.09039	1352.02469	-510.69016	45.83479	1349.54483	-499.60869	169.19891	1416.49948	-618.90575	21.61498	1418.93845	-601.64825	87.41921	1270.85136	-691.51016	114.59055	1275.08575	-464.15939	115.29755	1185.46333	-431.35963	291.58155	1382.89124	-586.74961	329.16515	1173.78891	-637.85397	307.86663	1066.97212	-671.1396	342.39323	960.6263	-670.64651	294.93732	808.16544	-623.93463	351.42776	813.02963	-678.03467	354.72015	758.11905	-642.13905	-64.80531	1386.1377	-550.53024	-110.79939	1157.47581	-608.46466	-141.8551	1059.89876	-557.7718	-136.80689	943.75671	-552.2654	-159.12191	816.36871	-484.36943	-171.87719	788.92677	-423.95935	237.31503	945.02167	-524.7448	-38.8512	945.17303	-515.43827	180.00864	993.01292	-694.29024	1.31495	1007.70576	-686.89545	229.8073	631.38988	-530.32883	217.09328	530.48386	-365.9967	-115.58685	837.23717	-427.6609	208.20671	318.56047	-412.1228	196.53635	156.93808	-515.25047	148.06298	122.50462	-587.56405	183.56054	84.14617	-399.64943	-45.95238	705.98335	-691.90483	-9.44725	538.23906	-610.64301	53.87409	349.67342	-660.68413	17.25917	110.05682	-759.43405	62.96385	59.74758	-840.73563	46.26156	63.54071	-648.50815
78	3.367	179.06721	1609.46976	-423.34438	45.45052	1608.95386	-423.78139	174.17614	1584.08295	-556.03523	46.62328	1582.94296	-549.93103	186.46994	1344.21906	-467.39429	46.99469	1342.38541	-455.23052	169.83116	1409.78073	-575.01778	22.3174	1412.90466	-556.91299	87.06178	1264.89799	-647.73544	115.48889	1267.34268	-421.09653	115.81778	1177.76863	-388.29815	292.25414	1375.21835	-544.55479	327.41825	1168.54103	-604.63066	305.09983	1063.07755	-641.0704	340.00034	956.84502	-646.32385	295.87931	802.65137	-602.05387	349.19029	809.49562	-658.86429	355.76134	754.37325	-624.31686	-63.87971	1379.71802	-505.30434	-111.18235	1150.53528	-561.2096	-142.25437	1053.61618	-508.64128	-137.33452	937.58331	-499.45034	-157.85512	812.68501	-426.27247	-169.19029	787.25128	-364.63345	236.82295	939.55948	-477.66788	-39.39107	937.88887	-475.61512	183.1012	988.55965	-648.31444	4.19676	1002.59468	-644.81415	230.98396	624.57397	-490.71823	217.7305	520.61474	-329.56898	-113.55874	835.88295	-371.08555	210.7251	305.68655	-326.85543	199.92182	123.51224	-383.815	152.35377	74.81151	-446.48418	186.16589	77.61016	-253.53497	-41.27755	705.41985	-660.61348	-8.49871	534.95148	-586.21494	56.02	348.17089	-644.40338	20.8585	114.22934	-757.14317	68.63672	67.21272	-839.28711	46.73839	63.52579	-647.78877
79	3.4	182.50587	1601.76788	-379.48387	48.92527	1602.82089	-379.63703	177.03236	1575.61981	-512.0528	49.48489	1576.12152	-505.71571	187.9582	1336.39191	-422.94449	48.43614	1334.41269	-411.06804	170.99638	1402.2261	-530.46417	23.59289	1405.67017	-512.00275	87.88467	1257.50145	-602.8532	116.67155	1259.67384	-376.86146	116.73364	1170.38551	-343.62106	293.43594	1367.26028	-501.05145	325.84724	1163.12302	-568.74687	302.38148	1058.87375	-607.34703	337.79533	953.12492	-618.07667	298.71048	797.22061	-574.38122	347.28233	806.14609	-635.30495	357.51831	750.8181	-602.47356	-62.42791	1372.50473	-460.35801	-110.79059	1143.00217	-514.19243	-141.46057	1046.41708	-460.27027	-136.38718	930.63904	-448.26187	-155.85129	807.93716	-371.15425	-165.93548	784.31969	-308.44635	236.70683	931.81313	-427.33776	-39.04265	931.12671	-431.23329	187.10899	982.59377	-598.79097	8.44363	996.6626	-599.62147	231.15633	611.80012	-459.53941	218.61029	502.54364	-300.99758	-110.53804	832.85866	-317.14214	212.85854	301.46994	-250.33821	204.8251	111.48397	-257.34081	161.2237	49.042	-308.20536	185.07322	94.42537	-117.9652	-35.74072	705.92575	-626.3567	-7.95198	532.36977	-558.81187	57.35887	347.31361	-625.53669	23.52753	120.78656	-753.1057	72.61298	78.45677	-836.92955	46.62451	63.34546	-646.75301
80	3.433	185.70629	1593.40164	-335.40802	52.37815	1596.73035	-335.09041	179.80822	1567.35504	-467.68578	52.20694	1569.78394	-461.06323	189.95253	1329.27429	-377.29607	49.86587	1327.26242	-366.53332	173.34229	1394.26361	-485.41924	25.74498	1397.7478	-468.52657	91.12758	1248.64143	-557.0528	117.98879	1253.12714	-331.23474	117.86167	1164.25018	-296.82768	295.60091	1359.58511	-455.47733	325.27596	1157.47063	-528.09566	300.73898	1054.10393	-568.2888	336.40926	949.11224	-584.14307	301.96421	791.70998	-543.09746	346.1554	802.96707	-606.44199	359.49947	747.21077	-575.97893	-60.34689	1364.7699	-417.10876	-109.32537	1135.00923	-467.7953	-139.31788	1038.80997	-412.81731	-133.91191	923.25981	-398.83675	-153.53705	802.4939	-319.40681	-162.3489	779.87129	-255.85188	237.19549	923.0854	-374.31999	-37.78401	924.84421	-384.62387	193.20108	975.29449	-546.49685	14.08418	990.92255	-551.79684	233.20833	597.75677	-425.16727	216.6284	484.41242	-266.34628	-107.16853	828.33328	-266.00313	212.89055	305.18341	-188.07224	210.18545	116.57596	-157.62509	173.01311	44.42478	-198.74229	181.18929	122.66794	-16.70484	-30.25369	706.39931	-586.42628	-7.98774	529.55299	-525.73124	57.62587	346.16177	-602.30251	22.9065	129.2306	-745.89859	71.55798	93.24322	-832.72003	45.74582	62.91657	-644.44443
81	3.467	188.50626	1587.33673	-290.50941	55.19217	1591.87866	-290.177	182.4888	1561.55823	-422.87132	54.8798	1565.04898	-416.2788	192.42388	1323.87192	-330.25383	51.76043	1322.00882	-321.97926	177.60757	1387.36572	-439.6954	29.29403	1390.64453	-425.41924	96.83342	1240.1075	-509.96197	119.30947	1248.46321	-284.18497	118.44273	1160.32242	-248.15474	299.22354	1353.07236	-407.42435	327.11819	1151.89713	-482.18666	301.45397	1049.12209	-522.98218	336.99596	945.47585	-543.62488	305.02687	786.44928	-506.48129	346.44047	800.20386	-571.07998	361.47533	743.63579	-543.51799	-57.74877	1357.47238	-375.60478	-105.57345	1126.45142	-423.51063	-135.87582	1031.39076	-367.16576	-130.37538	916.18416	-351.60244	-150.06463	796.32271	-270.95943	-158.7688	774.3605	-207.15734	239.06162	915.99174	-321.35731	-36.62551	918.57101	-335.48302	198.33319	969.09615	-494.06136	18.62698	984.75121	-501.19579	235.95728	594.24408	-373.52833	218.26036	480.0198	-218.28184	-103.73333	822.91512	-217.93739	214.02191	298.7628	-141.24987	205.52921	110.20598	-108.53147	161.81173	38.27231	-146.99041	180.97832	118.68522	34.28566	-26.53795	703.79456	-539.58038	-6.09577	525.30338	-484.394	57.83764	344.33376	-573.28659	17.8098	140.13552	-733.81142	63.63683	112.4568	-824.54536	43.66982	62.17444	-640.30518
